<?xml version="1.0" encoding="utf-8"?>
<!-- Generator: Adobe Illustrator 23.0.5, SVG Export Plug-In . SVG Version: 6.00 Build 0)  -->
<svg version="1.1" id="Capa_1" xmlns="http://www.w3.org/2000/svg" xmlns:xlink="http://www.w3.org/1999/xlink" height="40px" width="165px"
	 viewBox="0 0 349.7 99.3" style="enable-background:new 0 0 349.7 99.3;" xml:space="preserve">
<style type="text/css">
	.st0{fill-rule:evenodd;clip-rule:evenodd;fill:#FFFFFF;stroke:#FFFFFF;stroke-miterlimit:10;}
	.st1{fill:#FFFFFF;stroke:#FFFFFF;stroke-miterlimit:10;}
	.st2{fill-rule:evenodd;clip-rule:evenodd;fill:#FF7FE2;stroke:#B8B7B5;stroke-miterlimit:10;}
</style>
<g>
	<path id="Path13" class="st0" d="M185.5,78.4l-0.4,0.4c-4.3,3.8-9.3,5.9-14.5,5.9c-4.5,0-9.6-1.7-13.1-5.2L157,79l-0.6,0.8
		c-3.8,4.4-8.5,8.2-13.6,9.3c-6.7,1.5-12.8-1.2-15.8-10.3l-0.1-0.2l-0.3,0.4c-0.7,0.8-1.5,1.5-2.2,2.1c-7.1,6.1-14.9,5.8-19.2-1.6
		c-6.5,5.9-12.3,3.2-14.4,1.2c-4.4-4.2-5.6-12.6-4.6-19.9c0.2-1.1,0.5-4.6,3.3-6.8c3-2.2,8.1-1.9,10.9,1c2.6,2.5,1.7,4.6,1.6,10.2
		c1.8-5.8,1.9-13.6,9.8-13.7c3.6-0.1,7,2.1,7.8,5.4c0.5,2.5-1.2,8.5-0.6,15.4c2.4-2.5,3.7-5.1,4.8-7.4l1-1.9l-0.1-1.8
		c0-11.6,2-24.5,4.4-32.6c6-20.3,16.3-23.5,23.6-22.5c6.5,0.8,11.1,6.4,11.4,14.9c0.4,10.5-7.8,27-23.4,41.1
		c-0.1,11.3,1.6,14.2,2.3,15.3c3.4-1.2,7.2-5.6,11-12.4l0.3-0.5l0.1-0.4c1.7-4.9,5.7-7.6,7.9-8.6c4.4-2,9-1.2,11.3,0
		c4.9,2.6,8.2,11.4,2.6,14.2c-4.1,2.1-6.2-1.5-6.5-1.9c0,0.1-0.3,0.8-0.3,1.5c-0.1,3.5,5,7.7,11.8-1.2c0.9-1.2,1.6-2.2,2.1-3.2
		l0.5-0.9l0.3-0.8c0.8-1.8,1.7-3.3,2.7-4.3c5.3-5.8,13.3-5.6,17.8-2.5c5.5,3.9,4.7,10.7,1.5,14.2c-1.6,1.7-3.2,2.4-3.3,2.4
		c8.4-2.6,9.9-10.7,11.7-12.5c1.4-1.3,3.3-1.6,5-1.1c2.5,0.8,3.9,3,3.7,5.1c-0.1,2.4-3.8,8.2-5.8,10.5c-4.9,5.9-10.7,8-15.1,8.9
		c-3.5,0.7-11.8,1.1-16.7-5.4L185.5,78.4z M141.6,46.9c10.7-12.6,15-24.9,11.5-29.4C148.7,18.7,143.7,27.2,141.6,46.9z"/>
	<path id="Path14" class="st0" d="M330.6,40.1l0.3,0.2c0.6,0.6,1.2,1.3,1.6,2.1c2.1,4,0.7,11-6.6,11.6c10.7,1.9,4.7,11.5,5.3,19.2
		c6.8-4.9,8.1-11.3,10.1-12.9c1.9-1.5,4.2-0.9,4.3-0.9c2,0.4,3,1.8,3.2,2.1c1.6,2.3,1,4.5-1.7,9.1c-0.2,0.2-9.3,16.3-21.7,14.5
		c-1.2-0.1-4.2-0.7-6.6-4.2l-0.1-0.3l-0.5,0.7c-2.7,3.7-6.2,7.1-10.6,8.1c-6.8,1.6-13.7-1.3-17.2-11.4l-0.1-0.4l-0.3,0.3
		c-3.9,4.1-9.6,8.2-16.2,7.2c-2.6-0.4-4.6-1.6-6-3.4l-0.6-0.8V81c-3.9,5.5-9.3,10.3-15.9,10.7c-20.1,1-23.2-28.4-18-73.5
		c-26.3-4.1-26.4,2.9-28.4,5.3c-1.8,2.2-5.1,2.4-7.2,0.5c-5-4.5,2.4-11.1,3.4-11.9c5-4.1,11.9-7.5,37-4.9l15.1,1.6
		c8.6,1,17.3,0.8,20.3-2.2c0.8-0.9,1.3-3.3,4.2-3.9c1.4-0.2,3,0.1,4.3,1.2c3.6,3.1,0.9,7.2-0.7,9c-1.5,1.8-8.2,9.2-32.5,7.6
		c-1.7,11.6-2.7,27.3-2.2,38.9c0.5,13.1,3,21,5.6,21.4c3.6,0.4,9.9-11,11.7-15.5c0.1-0.4,0.3-1,0.5-1.6l0.1-0.1v-0.5
		c0.2-1.6,0.5-2.8,0.7-3.5c1.7-5,5.5-5.5,7.6-5.7c-7.1-1.3-7.9-8.4-5.4-12.1v-0.1l-0.2-0.1c-0.4-0.2-0.8-0.5-1.2-0.8
		c-1.6-1.4-2.4-3.8-1.2-6.1c4-8.2,21.3-6.7,27.2-5.9c3-8.7,17.4-4.7,15.4,3.4c11.6,2.3,16,0.9,16.7,0.4c0.4-0.4,2.3-4.5,6.6-2.9
		c2.1,0.8,3.6,3.2,3.2,5.7c-0.2,1.5-1.3,3.2-3.2,4.6L330.6,40.1z M288,62.6v-2.7c0-5.8,0.6-12.4,1.9-20.2c-7.2-1.4-11.1-1.5-13.4-1
		h-0.1l0.4,0.1c1.7,0.6,3.2,1.9,4.2,3.6c1.5,3.1,1.5,10.9-6.7,11.6c3.2,0.6,5.5,2.3,6.3,5c0.9,3.2-1.5,8-1,14.2
		c5.1-3.7,6.8-7.6,8.3-10.4L288,62.6z M316,63.5l0.1-0.9c0.4-2.4,1.1-4.7,2.5-6.2c1.8-2,4-2.4,5.8-2.5c-5.4-1-7.5-5.6-6.6-9.6
		l0.2-0.5h-0.2c-3,0.1-6.8-0.2-12.7-0.9c-1.8,12.7-2.9,30,1.2,35.1c1.3-0.6,3.7-2.1,8.2-11.2c0.5-1.2,1-2.2,1.4-3.1L316,63.5z"/>
	<path id="Path15" class="st1" d="M29.8,98.5c-2.6-0.1-5-2.6-7.3-3.9c-14.9,8.8-22,3.5-22.5-2c-0.5-5,4.4-11.9,16.7-10.6
		c7.9-14.7,6.7-36.9,6.4-50.4c-8.5-1.7-3.7-9.1-3.1-10.3c1.6-3.5,7-13.5,18.2-18.6c15.2-7,32.8,0,41.8,16.5
		c7.8,14.6,8.8,36.6-1.3,52.7C72.4,81.8,64.1,86.1,59,87.8c-10.3,3.4-19.6,0.8-26.1-5.3c-0.9,1.7-1.3,2.6-3,5
		c1.7,1.2,7.3,4.7,3.4,9.1C32.1,98,30.9,98.5,29.8,98.5z M34,18c3,1,5.1,3.1,5.1,5.8l0.3,14.4c0.3,17.9-1,26.8-2.5,32.9
		c8.5,13.7,19.8,5.9,24.2,1.1c8.8-9.7,10.4-24.5,7.7-36.8c-4-18.3-13.9-22.4-14.5-22.7C52.3,11.8,43.1,8.1,34,18z"/>
	<g>
		<path id="Path16" class="st2" d="M24.2,27.8c-0.1,0.1-0.2,0.1-0.4,0.1c-0.3,0-0.7-0.1-1.2-0.3c-0.5-0.3-0.8-0.5-0.8-0.8
			c1.2-3.7,2.9-6.9,5-9.8s4.4-5.3,6.9-7.3c2.6-2,5.3-3.5,8.1-4.5c2.9-1,5.7-1.6,8.6-1.6c3.8,0,7.6,0.9,11.4,2.7
			c3.9,1.8,7.3,4.5,10.3,8c3.1,3.5,5.5,7.8,7.4,13c1.9,5.1,2.8,11.1,2.8,17.8c0,4.1-0.4,8-1.3,11.6c-0.9,3.7-2.1,7-3.6,10
			c-1.6,3-3.4,5.6-5.4,8c-2.1,2.3-4.3,4.3-6.7,5.9c-2.4,1.6-4.9,2.8-7.5,3.7c-2.5,0.8-5.1,1.3-7.6,1.3c-1.8,0-3.6-0.2-5.3-0.6
			c-1.6-0.4-3.2-1-4.8-1.8c-1.5-0.8-3-1.8-4.4-3.1c-1.3-1.3-2.6-2.9-3.8-4.8c-0.8,2.5-1.9,4.9-3.1,7.1c-1.3,2.2-2.8,4.3-4.5,6.1
			c1,0.6,2.1,1.2,3.1,1.9c1.1,0.7,2.2,1.5,3.2,2.4c0.2,0.1,0.2,0.3,0.2,0.6c0,0.2-0.1,0.5-0.2,0.7c-0.2,0.2-0.4,0.4-0.7,0.5
			c-0.3,0.1-0.6,0.1-1.1-0.1c-1.1-1-2.2-1.8-3.2-2.4c-1.1-0.6-2.2-1.2-3.3-1.8c-0.7,0.6-1.6,1.2-2.7,1.8c-1.2,0.6-2.4,1.2-3.6,1.7
			c-1.3,0.6-2.6,1-3.8,1.3c-1.3,0.3-2.4,0.5-3.4,0.5c-1.7,0-3-0.3-3.9-1.1c-0.8-0.7-1.2-1.6-1.2-2.7c0-0.6,0.2-1.3,0.6-2.1
			c0.4-0.7,1-1.4,1.8-2c0.8-0.7,1.8-1.2,3.1-1.6c1.2-0.4,2.7-0.6,4.3-0.6c1.6,0,3.2,0.2,5,0.6c1.9-2.9,3.3-5.9,4.4-9.2
			c1.1-3.2,2-6.6,2.6-10.1c0.6-3.5,1-7.1,1.2-10.8c0.2-3.6,0.4-7.2,0.4-10.8S27,38,26.9,34.6c-0.1-3.4-0.2-6.7-0.2-9.8
			c0-1.3,0.5-2.2,1.4-2.8c1-0.5,2-0.8,3-0.8c1.1,0,2.1,0.3,3,0.8c0.8,0.5,1.3,1.2,1.3,2.1l0.3,14.2c0.1,4.3,0,8.4-0.1,12.3
			c-0.1,3.8-0.4,7.5-0.8,10.9c-0.4,3.5-1,6.8-1.8,10.2c2,3.7,4.3,6.5,7,8.2c2.6,1.7,5.4,2.6,8.3,2.6c3.1,0,6.1-0.9,9.2-2.7
			c3-1.7,5.7-4.2,8.2-7.3c2.4-3.2,4.3-7.1,5.8-11.5c1.5-4.5,2.3-9.5,2.3-14.9c0-2.6-0.3-5.3-0.7-8.2c-0.5-2.9-1.2-5.8-2.1-8.6
			c-0.9-2.9-2.1-5.6-3.5-8.2c-1.5-2.6-3.1-4.9-5.1-6.9c-1.9-2-4.1-3.6-6.5-4.8c-2.5-1.2-5.2-1.8-8.3-1.8c-2.3,0-4.6,0.4-6.8,1.3
			c-2.3,0.8-4.5,2-6.5,3.7c-2.1,1.7-4,3.8-5.7,6.3S25.4,24.4,24.2,27.8z M16.4,88.4c-0.5-0.1-1-0.1-1.5-0.2s-1-0.1-1.4-0.1
			c-0.5,0-1.2,0.1-2,0.2c-0.8,0.2-1.6,0.4-2.4,0.7c-0.7,0.3-1.4,0.6-1.9,1.1c-0.5,0.4-0.8,0.9-0.8,1.5s0.5,0.8,1.5,0.8
			c0.8,0,1.6-0.1,2.4-0.3c0.8-0.3,1.5-0.6,2.3-1c0.7-0.3,1.4-0.8,2-1.2C15.3,89.4,15.9,88.9,16.4,88.4z"/>
		<path id="Path17" class="st2" d="M128.7,63.4c0.2-0.3,0.4-0.5,0.8-0.5c0.3,0,0.6,0,0.9,0.2c0.4,0.1,0.6,0.3,0.8,0.6
			c0.1,0.3,0.1,0.5,0,0.8c-0.7,2-1.7,4-2.9,6c-1.2,2.1-2.5,3.9-4,5.5c-1.5,1.7-3,3-4.7,4.1c-1.7,1-3.4,1.5-5.2,1.5
			c-1.2,0-2.3-0.3-3.3-0.9c-0.9-0.6-1.7-1.4-2.3-2.4s-1.1-2.1-1.5-3.4c-0.3-1.3-0.6-2.6-0.7-3.9c-0.4,0.9-0.9,1.9-1.6,2.9
			c-0.6,1-1.3,1.9-2.1,2.7c-0.8,0.8-1.7,1.5-2.7,2s-2.1,0.7-3.2,0.7c-1.5,0-2.7-0.4-3.6-1.3c-0.9-0.9-1.7-2-2.2-3.3
			c-0.6-1.4-1-2.9-1.2-4.5s-0.4-3.1-0.4-4.6c0-3.4,0.4-5.8,1-7.2c0.7-1.4,1.9-2.1,3.8-2.1c1,0,2,0.3,2.8,0.8
			c0.9,0.6,1.3,1.3,1.3,2.1c0,0.5,0,1.2-0.1,2.1c0,1-0.1,2-0.1,3.2c0,1.1,0,2.3,0,3.5c0,1.2,0,2.3,0.2,3.3c0.1,1,0.3,1.9,0.5,2.5
			c0.3,0.6,0.7,1,1.2,1c0.8,0,1.6-0.6,2.3-1.6s1.4-2.3,2-3.8c0.6-1.6,1.2-3.4,1.7-5.3c0.5-2,1.1-4,1.6-5.9c0.3-1.1,0.9-1.8,1.7-2.3
			s1.6-0.7,2.4-0.7c1.1,0,2,0.3,2.9,0.9c0.8,0.6,1.2,1.3,1.2,2.1c0,0.2,0,0.9-0.2,1.9c-0.1,0.9-0.2,2.1-0.3,3.5
			c-0.2,1.4-0.3,2.9-0.3,4.4c-0.1,1.6-0.1,3,0.1,4.3c0.1,1.3,0.3,2.4,0.7,3.3c0.3,0.8,0.9,1.3,1.6,1.3c1.2,0,2.5-0.6,3.7-1.7
			c1.1-1.1,2.2-2.3,3.2-3.8s1.8-3,2.5-4.5C127.8,65.4,128.3,64.2,128.7,63.4z"/>
		<path id="Path18" class="st2" d="M138.7,16.3c1.1-1.6,2.5-2.9,4-4c1.6-1,3.2-1.8,4.8-2.2c1.6-0.5,3.2-0.6,4.7-0.4
			c1.6,0.2,3,0.8,4.2,1.8c1.2,1,2.2,2.3,2.9,4.1c0.8,1.7,1.1,3.9,1.1,6.5c0,2.1-0.3,4.4-1,6.7c-0.8,2.4-1.7,4.8-3,7.2
			c-1.2,2.4-2.6,4.8-4.2,7.1c-1.6,2.4-3.2,4.6-5,6.7c-1.7,2.2-3.5,4.1-5.2,5.9c-1.8,1.8-3.4,3.4-5,4.7c0,1-0.1,2.3-0.1,3.8
			c0,1.4,0.1,3,0.2,4.5c0.1,1.6,0.3,3.1,0.6,4.6c0.3,1.5,0.6,2.8,1.1,4c0.4,1.2,1,2.1,1.7,2.8c0.7,0.7,1.5,1,2.5,1
			c1-0.1,2.1-0.4,3.2-1.1c1.1-0.7,2.2-1.5,3.3-2.6c1.1-1.1,2.1-2.2,3.2-3.6c1-1.3,1.9-2.6,2.8-3.9c0.8-1.3,1.5-2.5,2.2-3.6
			c0.6-1.2,1-2.2,1.3-2.9c0.3-0.3,0.5-0.5,0.9-0.5c0.3-0.1,0.6-0.1,0.9,0.1c0.2,0.1,0.5,0.3,0.6,0.6c0.2,0.2,0.2,0.5,0.2,0.9
			c-0.5,1.3-1.2,2.6-2,4.2c-0.8,1.5-1.8,3.1-2.9,4.6c-1.1,1.6-2.3,3.1-3.6,4.6c-1.3,1.5-2.7,2.8-4.2,4c-1.4,1.2-3,2.1-4.5,2.8
			c-1.6,0.7-3.2,1-4.8,1c-2.5,0-4.5-0.8-6-2.4c-1.5-1.7-2.6-3.8-3.3-6.4c-0.8-2.5-1.3-5.3-1.5-8.4s-0.3-6-0.3-8.9
			c0-3.9,0.2-8,0.7-12.2c0.5-4.2,1.2-8.2,2-12.1c0.9-3.9,2-7.5,3.2-10.8C135.7,21.2,137.1,18.5,138.7,16.3z M144.9,20.2
			c-1.4,2.5-2.5,5.2-3.5,8.2c-0.9,3-1.7,6.1-2.2,9.3c-0.6,3.1-1.1,6.4-1.4,9.6c-0.3,3.3-0.5,6.4-0.7,9.4c1.5-1.3,3-2.8,4.6-4.4
			c1.6-1.7,3.2-3.5,4.7-5.5c1.6-1.9,3-3.9,4.4-6c1.4-2.2,2.6-4.3,3.7-6.4c1-2.1,1.8-4.2,2.5-6.3c0.6-2.1,0.9-4.1,0.9-6
			c0-3-0.5-5.1-1.4-6.4c-1-1.3-2.1-1.9-3.5-1.9c-1.3,0.1-2.7,0.7-4.2,1.8C147.3,16.8,146,18.3,144.9,20.2z"/>
		<path id="Path19" class="st2" d="M175.3,65c0.1,0.5-0.1,0.9-0.3,1.1c-0.3,0.2-0.6,0.4-0.9,0.5c-0.5,0.1-0.9-0.1-1.1-0.5
			c-0.2-0.4-0.4-0.9-0.6-1.5c-0.1-0.6-0.4-1.2-0.6-1.7c-0.3-0.5-0.7-0.8-1.2-0.8c-0.8,0-1.5,0.3-2,0.8c-0.6,0.5-1.1,1.1-1.6,1.9
			c-0.4,0.7-0.7,1.5-0.9,2.3c-0.3,0.9-0.4,1.6-0.4,2.2c0,1,0.2,2,0.6,3c0.3,0.9,0.9,1.8,1.6,2.5c0.6,0.7,1.5,1.2,2.4,1.7
			c1,0.4,2.1,0.6,3.2,0.6c1.7,0,3.3-0.4,4.7-1.3c1.5-0.9,2.9-2,4.2-3.3c1.2-1.3,2.4-2.8,3.4-4.4c0.9-1.7,1.8-3.2,2.4-4.7
			c0.1-0.4,0.4-0.6,0.7-0.6c0.4,0,0.7,0.1,1,0.2c0.3,0.1,0.6,0.4,0.8,0.7c0.2,0.2,0.2,0.5,0,0.8c-0.9,2.2-2.1,4.2-3.4,6.2
			c-1.4,2-2.9,3.8-4.6,5.3c-1.7,1.5-3.5,2.7-5.6,3.6c-2,0.9-4.2,1.4-6.5,1.4c-2.2,0-4.1-0.4-5.8-1c-1.6-0.7-3-1.6-4.1-2.7
			c-1.2-1.1-2-2.3-2.6-3.7c-0.6-1.4-0.9-2.8-0.9-4.3s0.3-3,0.9-4.4c0.6-1.4,1.3-2.6,2.3-3.6s2.2-1.8,3.5-2.4
			c1.3-0.6,2.7-0.9,4.1-0.9c0.9,0,1.8,0.1,2.6,0.3c0.9,0.2,1.6,0.6,2.3,1.2c0.6,0.5,1.2,1.3,1.6,2.1C174.9,62.5,175.2,63.7,175.3,65
			z"/>
		<path id="Path20" class="st2" d="M199.3,62.5c-0.5,0.2-1,0.5-1.4,0.8c-0.5,0.4-0.9,0.8-1.3,1.3c-0.4,0.5-0.7,1-0.9,1.5
			c-0.3,0.5-0.5,1-0.6,1.5c0.6,0.2,1.3,0.2,2,0.2c0.8,0,1.5-0.2,2.2-0.4c0.6-0.2,1.2-0.5,1.7-1c0.5-0.4,0.7-1,0.8-1.8
			c0.1-0.7-0.1-1.3-0.7-1.8C200.6,62.4,200,62.2,199.3,62.5z M194.7,70.5c0.1,2.2,0.8,3.9,2.1,5.2c1.3,1.2,3,1.6,5.1,1.3
			c1.9-0.3,3.5-0.9,5.1-1.7c1.5-0.8,2.9-1.8,4.1-3c1.3-1.2,2.4-2.6,3.3-4.1c1-1.5,1.8-3.1,2.6-4.8c0.1-0.3,0.3-0.5,0.6-0.5
			c0.3-0.1,0.6,0,1,0.1c0.3,0.1,0.5,0.4,0.7,0.6c0.2,0.3,0.3,0.6,0.2,0.9c-0.9,2.1-2,4-3.1,5.7c-1.2,1.7-2.4,3.2-3.8,4.5
			c-1.4,1.3-2.9,2.4-4.6,3.3c-1.7,0.9-3.6,1.6-5.7,2.1c-1.9,0.5-3.8,0.6-5.7,0.4c-1.9-0.2-3.6-0.8-5.1-1.6c-1.5-0.9-2.7-2.1-3.7-3.6
			c-0.9-1.6-1.4-3.5-1.4-5.7c0-1.6,0.3-3.2,1-4.7c0.6-1.5,1.4-2.8,2.5-3.9s2.4-1.9,4-2.5c1.5-0.5,3.1-0.7,4.8-0.4
			c0.9,0.1,1.8,0.3,2.6,0.7c0.8,0.4,1.5,0.9,2.1,1.5c0.6,0.6,1,1.4,1.3,2.2c0.2,0.9,0.3,1.8,0,2.8c-0.2,1.1-0.7,2-1.4,2.8
			s-1.5,1.3-2.5,1.8c-0.9,0.4-1.9,0.6-3,0.7S195.7,70.7,194.7,70.5z"/>
		<path id="Path21" class="st2" d="M237.4,15.1c-2.4-0.4-5.2-0.8-8.3-1.3c-3-0.4-6.1-0.7-9.2-0.7c-1.9,0-3.8,0.2-5.6,0.4
			c-1.8,0.2-3.5,0.6-5,1.2c-1.6,0.6-2.9,1.4-4.1,2.4c-1.2,1-2.2,2.3-3,3.7c-0.2,0.4-0.4,0.6-0.8,0.7c-0.3,0.1-0.6,0.1-0.9-0.1
			c-0.3-0.1-0.5-0.3-0.7-0.7c-0.1-0.3-0.2-0.6,0-1c0.9-1.9,2.1-3.5,3.7-4.7c1.5-1.3,3.3-2.3,5.3-3c1.9-0.8,4.1-1.3,6.4-1.6
			c2.4-0.3,4.8-0.5,7.5-0.5c3.1,0,6.4,0.2,9.9,0.5c3.4,0.3,6.8,0.7,10.2,1.1c3.5,0.3,6.8,0.7,10,1c3.2,0.4,6.3,0.5,9.1,0.5
			c1.9,0,3.7-0.1,5.4-0.3c1.7-0.1,3.2-0.5,4.6-0.9c1.3-0.5,2.5-1.2,3.5-1.9c1-0.8,1.8-1.8,2.3-3c0.2-0.3,0.5-0.5,0.8-0.5
			c0.3-0.1,0.6,0,0.8,0.2c0.3,0.1,0.5,0.4,0.7,0.7c0.1,0.2,0.1,0.5,0,0.8c-0.7,1.8-2,3.3-3.7,4.4c-1.8,1.1-3.8,2-6,2.7
			c-2.2,0.7-4.6,1.2-7.2,1.4c-2.6,0.3-5.1,0.4-7.5,0.4c-1.9,0-3.6-0.1-5.3-0.2c-1.7-0.1-3.2-0.2-4.6-0.3c-0.2,1-0.5,2.8-0.8,5.3
			c-0.4,2.5-0.7,5.5-1,8.8c-0.4,3.4-0.6,7.1-0.8,11.1c-0.2,4-0.3,7.9-0.3,11.9s0.1,7.9,0.4,11.6c0.3,3.7,0.9,7,1.6,9.9
			c0.7,2.8,1.7,5.1,3,6.8c1.2,1.8,2.8,2.6,4.7,2.6c1.5,0,3-0.7,4.7-2.1c1.6-1.4,3.1-3.2,4.6-5.3c1.4-2.1,2.8-4.4,3.9-6.8
			c1.2-2.5,2.1-4.8,2.8-6.9c0.3-0.4,0.6-0.6,0.9-0.7c0.4-0.1,0.7,0,1,0.2c0.3,0.2,0.5,0.4,0.6,0.7c0.2,0.3,0.2,0.6,0,0.9
			c-0.4,1.5-1.1,3.1-1.8,4.9c-0.7,1.7-1.5,3.4-2.5,5.2c-0.9,1.7-1.9,3.4-3.1,5c-1.2,1.6-2.4,3-3.8,4.3c-1.3,1.2-2.8,2.2-4.4,3
			c-1.5,0.7-3.2,1.1-5,1.1c-2.8,0-5.3-0.9-7.2-2.6c-2-1.7-3.6-4-4.8-6.9c-1.2-2.9-2.1-6.3-2.7-10c-0.5-3.8-0.9-7.8-1-11.9
			c-0.1-4.2-0.1-8.3,0.1-12.6c0.2-4.2,0.4-8.1,0.8-11.9c0.3-3.7,0.6-7,1-10C236.9,19.1,237.2,16.8,237.4,15.1z"/>
		<path id="Path22" class="st2" d="M291.8,63.4c0.2-0.2,0.4-0.4,0.8-0.4c0.3-0.1,0.6,0,0.9,0.1c0.3,0.1,0.5,0.3,0.7,0.6
			c0.2,0.3,0.3,0.5,0.2,0.8c-0.7,1.9-1.7,3.8-3,5.7c-1.3,2-2.8,3.9-4.4,5.5c-1.7,1.7-3.5,3.1-5.4,4.2c-2,1.1-4,1.6-6.2,1.6
			c-1.4,0-2.7-0.4-3.6-1.2c-1-0.7-1.8-1.8-2.3-3.1c-0.6-1.2-1-2.7-1.2-4.2c-0.2-1.6-0.4-3.2-0.4-4.7c0-1.9,0.1-3.5,0.3-4.9
			c0.1-1.3,0.4-2.4,0.8-3.3c0.4-0.8,0.9-1.5,1.5-1.9c0.7-0.4,1.6-0.6,2.6-0.6c1.1,0,2,0.3,2.8,0.9c0.8,0.6,1.2,1.3,1.2,2.1
			c0,0.4-0.1,1-0.2,1.9c-0.1,0.8-0.3,1.7-0.4,2.7c-0.2,0.9-0.3,2-0.5,3.1c-0.1,1.1-0.2,2.2-0.2,3.2c0,1.6,0.2,3,0.5,4.2
			c0.3,1.1,0.9,1.7,1.9,1.7c1.3,0,2.7-0.5,4.2-1.6c1.4-1.1,2.7-2.4,4-3.9c1.3-1.5,2.4-3.1,3.4-4.6C290.7,65.7,291.4,64.4,291.8,63.4
			z M269.8,46.2c0-1.2,0.4-2.2,1.2-3c0.8-0.8,1.8-1.2,3-1.2c1.2,0,2.2,0.4,2.9,1.2c0.8,0.8,1.2,1.8,1.2,3c0,1.2-0.4,2.2-1.2,2.9
			c-0.7,0.8-1.7,1.2-2.9,1.2c-1.2,0-2.2-0.4-3-1.2C270.2,48.4,269.8,47.4,269.8,46.2z"/>
		<path id="Path23" class="st2" d="M320.1,63.4c0.2-0.3,0.4-0.5,0.7-0.5s0.7,0,1,0.2c0.3,0.1,0.5,0.3,0.8,0.6
			c0.2,0.3,0.2,0.5,0.1,0.8c-1.1,2.8-2.3,5.3-3.5,7.8c-1.1,2.4-2.4,4.5-3.7,6.4c-1.3,1.9-2.7,3.4-4.1,4.7c-1.5,1.2-3,2-4.6,2.4
			c-2.2,0.5-4.1,0.4-5.7-0.2c-1.6-0.6-2.9-1.6-4-3c-1.2-1.3-2.1-3-2.8-4.9s-1.2-3.8-1.6-5.8s-0.7-4-0.8-5.9
			c-0.2-1.9-0.3-3.5-0.3-4.9c0-2.3,0.1-4.5,0.3-6.8c0.2-2.3,0.4-4.6,0.6-6.7c0.3-2.1,0.5-4.1,0.8-5.9c0.3-1.9,0.6-3.5,0.8-4.9
			c-0.9-0.2-1.9-0.4-3.1-0.6c-1.2-0.3-2.5-0.5-3.8-0.7c-1.3-0.2-2.6-0.4-4-0.6c-1.3-0.1-2.6-0.2-3.8-0.2c-2,0-3.8,0.3-5.3,0.8
			c-1.6,0.5-2.8,1.3-3.7,2.3c-0.3,0.4-0.6,0.5-0.9,0.6c-0.4,0-0.7-0.1-1-0.3c-0.2-0.2-0.4-0.4-0.5-0.8c-0.1-0.3-0.1-0.7,0.1-1.1
			c0.6-0.8,1.3-1.5,2.3-2.1c0.9-0.5,2-1,3.3-1.3c1.2-0.3,2.5-0.6,4-0.7c1.5-0.1,3-0.2,4.5-0.2c2.4,0,4.8,0.1,7,0.3
			c2.2,0.3,4.1,0.5,5.7,0.9c0.1-0.3,0.1-0.7,0.2-1.1c0-0.4,0.2-1.1,0.5-2.2c0.2-0.9,0.8-1.5,1.7-1.8c0.9-0.4,1.9-0.4,2.8-0.3
			c1,0.2,1.9,0.5,2.7,1.1c0.7,0.5,1.1,1.2,1.1,2c-0.2,0.9-0.4,1.5-0.5,2s-0.3,1.2-0.6,2.2l3.3,0.7c1.3,0.3,2.6,0.5,4,0.8
			c1.3,0.2,2.8,0.4,4.2,0.5c1.5,0.2,2.9,0.2,4.2,0.2c2.1,0,4-0.2,5.7-0.7c1.7-0.4,2.8-1.3,3.5-2.6c0.3-0.4,0.5-0.7,0.9-0.8
			c0.3,0,0.6,0,0.9,0.1c0.2,0.2,0.5,0.4,0.6,0.7c0.2,0.4,0.2,0.7,0.1,1.1c-0.6,1-1.3,1.8-2.2,2.4c-1,0.7-2.1,1.2-3.3,1.6
			c-1.3,0.4-2.6,0.7-4,0.8c-1.5,0.2-2.9,0.3-4.5,0.3c-1.1,0-2.4-0.1-3.7-0.1c-1.3-0.1-2.6-0.2-3.8-0.4c-1.3-0.1-2.5-0.3-3.6-0.5
			c-1.2-0.1-2.2-0.3-3.1-0.5c-0.2,1.5-0.5,3.2-0.7,5c-0.3,1.9-0.5,3.9-0.7,6.1c-0.3,2.1-0.5,4.4-0.6,6.6c-0.1,2.3-0.2,4.6-0.2,6.8
			c0,0.7,0,1.6,0,2.8c0.1,1.1,0.2,2.4,0.3,3.8c0.2,1.4,0.4,2.8,0.6,4.3c0.3,1.4,0.7,2.7,1.2,3.9c0.5,1.1,1.1,2.1,1.9,2.8
			c0.7,0.7,1.6,1.1,2.6,1c1,0,1.9-0.4,2.8-1.1c1-0.7,1.9-1.5,2.8-2.6c0.9-1.1,1.7-2.3,2.5-3.6c0.8-1.3,1.6-2.7,2.3-4
			c0.7-1.4,1.3-2.6,1.9-3.9C319.2,65.3,319.7,64.3,320.1,63.4z"/>
		<path id="Path24" class="st2" d="M343.4,63.4c0.2-0.2,0.4-0.4,0.7-0.4c0.4-0.1,0.7,0,1,0.1c0.3,0.1,0.5,0.3,0.7,0.6
			c0.2,0.3,0.2,0.5,0.1,0.8c-0.7,1.9-1.7,3.8-2.9,5.7c-1.3,2-2.8,3.9-4.4,5.5c-1.7,1.7-3.5,3.1-5.5,4.2c-1.9,1.1-4,1.6-6.1,1.6
			c-1.5,0-2.7-0.4-3.7-1.2c-1-0.7-1.7-1.8-2.3-3.1c-0.5-1.2-0.9-2.7-1.2-4.2c-0.2-1.6-0.3-3.2-0.3-4.7c0-1.9,0.1-3.5,0.2-4.9
			c0.2-1.3,0.4-2.4,0.8-3.3c0.4-0.8,0.9-1.5,1.6-1.9c0.7-0.4,1.5-0.6,2.6-0.6c1,0,2,0.3,2.8,0.9c0.8,0.6,1.2,1.3,1.2,2.1
			c0,0.4-0.1,1-0.2,1.9c-0.2,0.8-0.3,1.7-0.5,2.7c-0.1,0.9-0.3,2-0.4,3.1c-0.1,1.1-0.2,2.2-0.2,3.2c0,1.6,0.1,3,0.4,4.2
			c0.4,1.1,1,1.7,1.9,1.7c1.4,0,2.8-0.5,4.2-1.6c1.5-1.1,2.8-2.4,4.1-3.9c1.3-1.5,2.4-3.1,3.3-4.6C342.3,65.7,343,64.4,343.4,63.4z
			 M321.4,46.2c0-1.2,0.4-2.2,1.1-3c0.8-0.8,1.8-1.2,3-1.2c1.2,0,2.2,0.4,3,1.2c0.8,0.8,1.2,1.8,1.2,3c0,1.2-0.4,2.2-1.2,2.9
			c-0.8,0.8-1.8,1.2-3,1.2c-1.2,0-2.2-0.4-3-1.2C321.8,48.4,321.4,47.4,321.4,46.2z"/>
	</g>
</g>
</svg>
