<?xml version="1.0" encoding="utf-8"?>
<!-- Generator: Adobe Illustrator 23.0.5, SVG Export Plug-In . SVG Version: 6.00 Build 0)  -->
<svg version="1.1" id="Capa_1" xmlns="http://www.w3.org/2000/svg" xmlns:xlink="http://www.w3.org/1999/xlink" height="300px" width="350px"
	 viewBox="0 0 351 389.8" style="enable-background:new 0 0 351 389.8;" xml:space="preserve">
<style type="text/css">
	.st0{stroke:#000000;stroke-miterlimit:10;}
	.st1{font-family:'MS-Gothic';}
	.st2{font-size:78px;}
</style>
<g>
	<path class="st0" d="M127.1,0.5L61.1,62.8v234.8h220V0.5H127.1z M124,17.4v42.5H79L124,17.4z M270.6,287.8h-199V69.8h62.9V10.4
		h136.2V287.8z"/>
</g>
<path d="M139.7,85.2l-15.3,17l-15.3-17l-7.6,8.5l15.3,17l-15.3,17l7.6,8.5l15.3-17l15.3,17l7.6-8.5l-15.3-17l15.3-17L139.7,85.2z"/>
<path d="M195.7,136.1l17.3-17l17.3,17l8.7-8.5l-17.3-17l17.3-17l-8.7-8.5l-17.3,17l-17.3-17l-8.7,8.5l17.3,17l-17.3,17L195.7,136.1z
	"/>
<path d="M101.5,226.1l11.3,11.3l7.4-7.4c28.1-28.1,73.7-28.1,101.8,0l7.4,7.4l11.3-11.3l-7.4-7.4c-34.4-34.3-90.1-34.3-124.4,0
	L101.5,226.1z"/>
<text transform="matrix(1 0 0 1 0 379.144)" class="st1 st2">ERROR 404</text>
</svg>
